<svg width="24" height="24" viewBox="0 0 24 24" fill="none" xmlns="http://www.w3.org/2000/svg">
<path fill-rule="evenodd" clip-rule="evenodd" d="M16.158 2.41704C16.4251 2.15001 16.7873 2 17.1649 2C17.5426 2 17.9048 2.15001 18.1719 2.41704L19.9161 4.16125C20.1831 4.42833 20.3332 4.79058 20.3332 5.16825C20.3332 5.54592 20.1832 5.90812 19.9162 6.1752L13.2143 12.8771L8.66081 13.6724L9.45609 9.11894L16.158 2.41704ZM14.9178 5.77854L10.8521 9.84423L10.5057 11.8274L12.489 11.4811L16.5547 7.41538L14.9178 5.77854ZM15.9785 4.71788L17.6153 6.35472L18.8018 5.16825L17.1649 3.53141L15.9785 4.71788Z" fill="black" fill-opacity="0.85"/>
<path d="M4.58333 6.83333C4.56123 6.83333 4.54004 6.84211 4.52441 6.85774C4.50878 6.87337 4.5 6.89457 4.5 6.91667V18.9269L7.03516 17.4093C7.47348 17.139 7.97892 16.9971 8.49392 17H19.5833C19.6054 17 19.6266 16.9912 19.6423 16.9756C19.6579 16.96 19.6667 16.9388 19.6667 16.9167V8.58333H21.1667V16.9167C21.1667 17.3366 20.9999 17.7393 20.7029 18.0363C20.406 18.3332 20.0033 18.5 19.5833 18.5H8.48678C8.25133 18.4985 8.02024 18.5634 7.82011 18.6875L7.81027 18.6936L3 21.5731V6.91667C3 6.49674 3.16682 6.09401 3.46375 5.79708C3.76068 5.50015 4.16341 5.33333 4.58333 5.33333H9.58333V6.83333H4.58333Z" fill="black" fill-opacity="0.85"/>
</svg>
