<svg width="36" height="36" viewBox="0 0 36 36" fill="none" xmlns="http://www.w3.org/2000/svg">
<mask id="path-1-inside-1" fill="white">
<path fill-rule="evenodd" clip-rule="evenodd" d="M28.683 14.6989C28.683 9.06619 23.9959 4.5 18.2139 4.5C12.432 4.5 7.74485 9.06619 7.74485 14.6989L7.74571 16.853C6.70216 17.4407 6 18.5396 6 19.7983C6 21.2567 6.9427 22.5007 8.2654 22.9832C9.63849 27.0562 14.0438 30.1057 18.2139 29.9972C19.6138 29.9608 20.6633 29.7441 21.3007 29.5672C21.7348 29.4467 21.9883 29.0278 21.9504 28.5788C21.8949 27.9231 21.2584 27.4745 20.6145 27.6105C19.8657 27.7687 18.9206 27.9322 18.2139 27.9322C13.3957 27.9322 10.3621 24.4922 10.3621 19.7983V16.3987C10.3621 15.4599 11.1433 14.6989 12.107 14.6989H24.3209C25.2846 14.6989 26.0658 15.4599 26.0658 16.3987V19.7983L26.0577 20.167C26.0173 21.0889 25.8261 21.9728 25.5076 22.7959C24.711 23.0006 23.6714 23.1983 22.6282 23.1983C21.9606 23.1983 21.2847 23.1174 20.6691 23.0054C20.4481 22.418 19.8754 21.9019 19.1134 21.6834C17.9693 21.3553 16.8316 21.8224 16.5723 22.7267C16.313 23.6309 17.0303 24.6299 18.1745 24.958C18.9577 25.1826 19.7378 25.0346 20.2353 24.6288C20.9386 24.7784 21.7573 24.8981 22.576 24.8981C24.7119 24.8981 26.8479 24.083 26.9353 24.0493L27.7332 24.049C27.7366 24.0417 27.7401 24.0344 27.7435 24.0271C29.0161 23.866 30.0001 22.7795 30.0001 21.4632V19.8329C30.0001 18.866 29.4692 18.0232 28.683 17.5799V14.6989Z"/>
</mask>
<path d="M7.74485 14.6989H5.29378L5.29378 14.6999L7.74485 14.6989ZM7.74571 16.853L8.94845 18.9887L10.1973 18.2854L10.1968 16.852L7.74571 16.853ZM8.2654 22.9832L10.588 22.2002L10.2118 21.0841L9.10534 20.6805L8.2654 22.9832ZM18.2139 29.9972L18.2777 32.4474H18.2777L18.2139 29.9972ZM21.3007 29.5672L21.956 31.929H21.956L21.3007 29.5672ZM21.9504 28.5788L19.508 28.7853V28.7853L21.9504 28.5788ZM20.6145 27.6105L20.1079 25.2124H20.1079L20.6145 27.6105ZM26.0658 19.7983L28.5162 19.8519L28.5168 19.8251V19.7983H26.0658ZM26.0577 20.167L28.5064 20.2743L28.5076 20.2474L28.5082 20.2206L26.0577 20.167ZM25.5076 22.7959L26.1176 25.1698L27.3386 24.8561L27.7935 23.6805L25.5076 22.7959ZM20.6691 23.0054L18.3749 23.8684L18.8639 25.1684L20.2306 25.4169L20.6691 23.0054ZM19.1134 21.6834L18.4378 24.0395L18.4378 24.0395L19.1134 21.6834ZM16.5723 22.7267L14.2162 22.0511L14.2162 22.0511L16.5723 22.7267ZM18.1745 24.958L18.8501 22.6019V22.6019L18.1745 24.958ZM20.2353 24.6288L20.7452 22.2314L19.5963 21.987L18.6861 22.7294L20.2353 24.6288ZM26.9353 24.0493L26.9344 21.5982L26.4787 21.5984L26.0534 21.7624L26.9353 24.0493ZM27.7332 24.049L27.7341 26.5001L29.2881 26.4995L29.9505 25.0937L27.7332 24.049ZM27.7435 24.0271L27.4357 21.5954L26.0962 21.765L25.5237 22.9877L27.7435 24.0271ZM28.683 17.5799H26.232V19.0119L27.4794 19.7151L28.683 17.5799ZM18.2139 6.95106C22.703 6.95106 26.232 10.4799 26.232 14.6989H31.1341C31.1341 7.65248 25.2887 2.04894 18.2139 2.04894V6.95106ZM10.1959 14.6989C10.1959 10.4799 13.7249 6.95106 18.2139 6.95106V2.04894C11.1391 2.04894 5.29378 7.65248 5.29378 14.6989H10.1959ZM10.1968 16.852L10.1959 14.6979L5.29378 14.6999L5.29465 16.854L10.1968 16.852ZM8.45106 19.7983C8.45106 19.482 8.62483 19.1709 8.94845 18.9887L6.54297 14.7173C4.7795 15.7105 3.54894 17.5973 3.54894 19.7983H8.45106ZM9.10534 20.6805C8.68795 20.5283 8.45106 20.1624 8.45106 19.7983H3.54894C3.54894 22.3511 5.19744 24.4731 7.42547 25.2858L9.10534 20.6805ZM18.1502 27.547C15.0618 27.6273 11.6197 25.2604 10.588 22.2002L5.94277 23.7662C7.65728 28.8519 13.0258 32.584 18.2777 32.4474L18.1502 27.547ZM20.6454 27.2054C20.1787 27.3348 19.3283 27.5163 18.1502 27.547L18.2777 32.4474C19.8993 32.4053 21.1478 32.1533 21.956 31.929L20.6454 27.2054ZM19.508 28.7853C19.4603 28.2211 19.7947 27.4414 20.6454 27.2054L21.956 31.929C23.6749 31.4521 24.5164 29.8344 24.3927 28.3723L19.508 28.7853ZM21.121 30.0086C20.4019 30.1606 19.5835 29.6773 19.508 28.7853L24.3927 28.3723C24.2064 26.1688 22.1148 24.7884 20.1079 25.2124L21.121 30.0086ZM18.2139 30.3833C19.197 30.3833 20.3588 30.1697 21.121 30.0086L20.1079 25.2124C19.3727 25.3677 18.6442 25.4812 18.2139 25.4812V30.3833ZM7.91106 19.7983C7.91106 22.6732 8.84588 25.3379 10.6957 27.3047C12.5618 29.2888 15.1928 30.3833 18.2139 30.3833V25.4812C16.4168 25.4812 15.1219 24.8556 14.2666 23.9463C13.3951 23.0196 12.8132 21.6173 12.8132 19.7983H7.91106ZM7.91106 16.3987V19.7983H12.8132V16.3987H7.91106ZM12.107 12.2478C9.85044 12.2478 7.91106 14.0462 7.91106 16.3987H12.8132C12.8132 16.8736 12.4362 17.1499 12.107 17.1499V12.2478ZM24.3209 12.2478H12.107V17.1499H24.3209V12.2478ZM28.5168 16.3987C28.5168 14.0462 26.5774 12.2478 24.3209 12.2478V17.1499C23.9917 17.1499 23.6147 16.8736 23.6147 16.3987H28.5168ZM28.5168 19.7983V16.3987H23.6147V19.7983H28.5168ZM28.5082 20.2206L28.5162 19.8519L23.6153 19.7447L23.6072 20.1134L28.5082 20.2206ZM27.7935 23.6805C28.2065 22.6133 28.4541 21.4672 28.5064 20.2743L23.609 20.0597C23.5805 20.7107 23.4458 21.3323 23.2218 21.9113L27.7935 23.6805ZM22.6282 25.6494C23.9546 25.6494 25.2139 25.402 26.1176 25.1698L24.8977 20.4219C24.208 20.5991 23.3883 20.7472 22.6282 20.7472V25.6494ZM20.2306 25.4169C20.9436 25.5466 21.7723 25.6494 22.6282 25.6494V20.7472C22.149 20.7472 21.6258 20.6881 21.1075 20.5939L20.2306 25.4169ZM18.4378 24.0395C18.4861 24.0534 18.5017 24.0694 18.4921 24.0611C18.4859 24.0558 18.4252 24.0021 18.3749 23.8684L22.9632 22.1425C22.4284 20.7208 21.1773 19.7254 19.789 19.3273L18.4378 24.0395ZM18.9284 23.4023C18.8126 23.8059 18.5342 23.9724 18.4419 24.0103C18.3544 24.0463 18.356 24.0161 18.4378 24.0395L19.789 19.3273C17.8906 18.7829 14.9881 19.3589 14.2162 22.0511L18.9284 23.4023ZM18.8501 22.6019C18.7683 22.5784 18.7829 22.5519 18.838 22.6288C18.8963 22.7099 19.0441 22.9986 18.9284 23.4023L14.2162 22.0511C13.4442 24.7432 15.6004 26.7697 17.4989 27.3141L18.8501 22.6019ZM18.6861 22.7294C18.8071 22.6307 18.8958 22.6143 18.906 22.6126C18.9213 22.61 18.8999 22.6162 18.8501 22.6019L17.4989 27.3141C18.9215 27.722 20.5655 27.5225 21.7846 26.5282L18.6861 22.7294ZM22.576 22.4471C21.9821 22.4471 21.3428 22.3585 20.7452 22.2314L19.7254 27.0262C20.5345 27.1983 21.5325 27.3492 22.576 27.3492V22.4471ZM26.0534 21.7624C26.0683 21.7566 25.6074 21.9347 24.9156 22.112C24.2082 22.2932 23.3601 22.4471 22.576 22.4471V27.3492C25.1955 27.3492 27.6925 26.3843 27.8172 26.3362L26.0534 21.7624ZM27.7323 21.5979L26.9344 21.5982L26.9362 26.5004L27.7341 26.5001L27.7323 21.5979ZM25.5237 22.9877C25.5214 22.9928 25.5188 22.9982 25.5159 23.0043L29.9505 25.0937C29.9545 25.0852 29.9588 25.076 29.9633 25.0664L25.5237 22.9877ZM27.5491 21.4632C27.5491 21.4988 27.5384 21.526 27.5161 21.5511C27.4915 21.5788 27.4629 21.592 27.4357 21.5954L28.0513 26.4587C30.5333 26.1446 32.4512 24.0298 32.4512 21.4632H27.5491ZM27.5491 19.8329V21.4632H32.4512V19.8329H27.5491ZM27.4794 19.7151C27.5003 19.7269 27.5192 19.7453 27.5318 19.7664C27.5424 19.7841 27.5491 19.8039 27.5491 19.8329H32.4512C32.4512 17.9459 31.4122 16.3047 29.8867 15.4448L27.4794 19.7151ZM26.232 14.6989V17.5799H31.1341V14.6989H26.232Z" fill="black" mask="url(#path-1-inside-1)"/>
</svg>
