<svg fill="none" height="24" viewBox="0 0 24 24" width="24" xmlns="http://www.w3.org/2000/svg"><path d="m12.5007 4.45695-.113-.74145zm5.5714-.45695.4488.60094c.2588-.19333.3648-.53073.263-.83737-.1019-.30663-.3887-.51357-.7118-.51357zm-1.2857 1.94305-.6951-.28176c-.1261.31105-.0301.668.2349.87395zm-7.39287 4.91415c0-.4142-.33579-.75-.75-.75s-.75.3358-.75.75zm-1.5.9143c0 .4142.33579.75.75.75s.75-.3358.75-.75zm4.92857-.9143c0-.4142-.3358-.75-.75-.75s-.75.3358-.75.75zm-1.5.9143c0 .4142.3358.75.75.75s.75-.3358.75-.75zm-5.35714.457c0-1.9627.6708-3.55043 1.80809-4.72663 1.1448-1.18398 2.80475-1.99338 4.84055-2.30347l-.2259-1.4829c-2.2947.34953-4.27759 1.27985-5.693 2.7437-1.42294 1.47163-2.22974 3.43989-2.22974 5.7693zm12.73474 3.7548c-1.0986 2.0103-3.7097 3.2667-6.199 3.2667v1.5c2.8868 0 6.0884-1.4364 7.5153-4.0473zm-6.0861-10.7849c1.4701-.22392 2.8382-.33625 3.8398-.39246.5002-.02807.9075-.04206 1.1886-.04903.1406-.00349.2495-.00521.3225-.00607.0366-.00043.0642-.00064.0823-.00074.009-.00005.0157-.00008.0199-.00009.0022 0 .0037-.00001.0046-.00001h.0009s.0001 0 0 0-.0001 0-.0001-.75-.0001-.75-.0002-.75c0 0-.0001 0-.0002 0s-.0003 0-.0006 0c-.0005 0-.0011 0-.0019 0-.0016 0-.0038.00001-.0067.00002-.0056.00001-.0138.00004-.0243.0001-.021.00012-.0516.00036-.0912.00082-.0793.00093-.1947.00277-.3421.00643-.2948.00731-.7179.02188-1.2355.05093-1.0341.05803-2.4518.17417-3.9817.4072zm3.7126 1.33684c1.0272.79829 1.8905 1.65524 2.3348 2.77091l1.3936-.55503c-.5943-1.49208-1.7152-2.55105-2.808-3.40027zm1.7459-2.53524c-.4487-.60094-.449-.60074-.4493-.60055-.0001.00007-.0003.00027-.0005.00041-.0004.00028-.0008.00056-.0011.00085-.0008.00059-.0016.00121-.0025.00187-.0017.00131-.0037.00276-.0057.00436-.0042.00319-.009.00695-.0145.01129-.011.00868-.0245.01968-.0405.03309-.0319.02681-.0734.06326-.1227.11006-.0987.09361-.2284.22852-.3752.4103-.2942.36421-.6541.91338-.9688 1.68961l1.3902.56351c.2567-.63342.5397-1.05578.7455-1.31067.1032-.12779.1877-.21432.2409-.26477.0266-.02524.0453-.04147.0547-.04933.0047-.00393.007-.00577.0068-.00559-.0001.00009-.0009.00068-.0023.00177-.0007.00054-.0016.00121-.0026.002-.0005.00039-.0011.00082-.0017.00127-.0003.00023-.0006.00046-.0009.00071-.0002.00012-.0005.00031-.0005.00037-.0003.00019-.0005.00038-.4493-.60056zm2.6786 8.6858c0 .9004-.2155 1.679-.5248 2.2069-.3197.5457-.6522.7003-.8681.7003v1.5c.9676 0 1.7065-.6641 2.1623-1.442.4663-.7957.7306-1.8458.7306-2.9652zm-1.3929 2.9072c-.4055 0-.7892-.1378-1.0877-.5002-.3135-.3804-.6079-1.0999-.6079-2.407h-1.5c0 1.5071.3367 2.6162.9502 3.3608.6283.7627 1.4675 1.0464 2.2454 1.0464zm-1.6956-2.9072c0-1.3071.2944-2.0265.6079-2.407.2985-.36236.6822-.50017 1.0877-.50017v-1.5c-.7779 0-1.6171.2837-2.2454 1.04637-.6135.7446-.9502 1.8537-.9502 3.3608zm1.6956-2.90717c.2159 0 .5484.15459.8681.70037.3093.5279.5248 1.3064.5248 2.2068h1.5c0-1.1194-.2643-2.1694-.7306-2.96516-.4558-.77791-1.1947-1.44201-2.1623-1.44201zm-15.60835 2.72137c0-1.7023 1.13022-2.72137 2.10628-2.72137v-1.5c-2.01977 0-3.60628 1.92367-3.60628 4.22137zm4.14408-1.6428v.9143h1.5v-.9143zm3.42857 0v.9143h1.5v-.9143zm1.1786 8.3928c-2.54105 0-4.77039-1.5638-5.85167-3.8909l-1.36033.6321c1.30046 2.7987 4.02626 4.7588 7.212 4.7588zm-5.85167-3.8909c-.43706-.9406-.68407-2.003-.68407-3.1306h-1.5c0 1.348.29557 2.626.82374 3.7627zm-4.39958-2.8591c0 1.1155.2788 2.1161.94215 2.8431.67375.7384 1.64082 1.082 2.77726 1.082v-1.5c-.83296 0-1.3506-.2439-1.66921-.5931-.32899-.3605-.5502-.9475-.5502-1.832z" fill="#fff"/></svg>