<svg width="48" height="48" viewBox="0 0 48 48" fill="none" xmlns="http://www.w3.org/2000/svg">
<path d="M32.6745 18.0465C32.2943 18.018 31.9092 18.0034 31.52 18.0034C24.5525 18.0034 18.9043 22.6772 18.9043 28.4427C18.9043 29.6316 19.1444 30.7741 19.5868 31.8387C19.2043 31.8639 18.8177 31.8767 18.4273 31.8767C16.5326 31.8767 15.3155 31.5412 13.658 30.9918C13.2328 30.8699 11.8273 31.57 9.44133 33.092C9.26552 33.1782 9.08831 33.1623 8.90969 33.0443C8.73107 32.9264 8.6835 32.7466 8.76699 32.5048C9.4089 30.4415 9.59137 29.2963 9.31439 29.0691C5.92649 26.8846 4 23.7678 4 19.9383C4 13.345 10.4593 8 18.4273 8C25.6173 8 31.5789 12.3522 32.6745 18.0465ZM13.658 18.1152C14.7774 18.1152 15.6849 17.22 15.6849 16.1157C15.6849 15.0114 14.7774 14.1162 13.658 14.1162C12.5385 14.1162 11.631 15.0114 11.631 16.1157C11.631 17.22 12.5385 18.1152 13.658 18.1152ZM23.3159 18.1152C24.4354 18.1152 25.3429 17.22 25.3429 16.1157C25.3429 15.0114 24.4354 14.1162 23.3159 14.1162C22.1965 14.1162 21.289 15.0114 21.289 16.1157C21.289 17.22 22.1965 18.1152 23.3159 18.1152Z" fill="black"/>
<path d="M32.0394 38.9359C33.6241 38.9359 34.6421 38.6548 36.0285 38.1945C36.3841 38.0924 37.5597 38.6789 39.5553 39.954C39.7023 40.0262 39.8506 40.0128 40 39.9141C40.1494 39.8153 40.1891 39.6646 40.1193 39.4621C39.5824 37.7335 39.4298 36.7741 39.6615 36.5838C42.4951 34.7537 44.001 32.2079 44.001 28.9998C44.001 23.4762 38.7038 18.9331 32.0394 18.9331C25.3749 18.9331 19.9723 23.4109 19.9723 28.9345C19.9723 34.4581 25.3749 38.9359 32.0394 38.9359ZM36.0285 27.4072C35.0921 27.4072 34.3331 26.6572 34.3331 25.7321C34.3331 24.8069 35.0921 24.057 36.0285 24.057C36.9648 24.057 37.7239 24.8069 37.7239 25.7321C37.7239 26.6572 36.9648 27.4072 36.0285 27.4072ZM27.9505 27.4072C27.0142 27.4072 26.2551 26.6572 26.2551 25.7321C26.2551 24.8069 27.0142 24.057 27.9505 24.057C28.8868 24.057 29.6459 24.8069 29.6459 25.7321C29.6459 26.6572 28.8868 27.4072 27.9505 27.4072Z" fill="black"/>
</svg>
