<svg width="48" height="48" viewBox="0 0 48 48" fill="none" xmlns="http://www.w3.org/2000/svg">
<path fill-rule="evenodd" clip-rule="evenodd" d="M24.8753 23.006C28.7227 24.0605 31.0726 26.3751 31.0726 29.1268C31.0726 32.1873 28.3354 34.9391 23.8941 36.405C21.5184 37.1766 17.1029 37.3309 14.9339 36.7393C10.8282 35.5819 8.50426 33.3189 8.50426 30.4127C8.50426 28.8182 9.20144 27.4293 10.725 26.0148C12.1451 24.6775 13.2296 24.0346 15.3212 23.3403C18.4715 22.2859 21.8542 22.1573 24.8753 23.006ZM17.6963 13.0541C14.8041 14.0827 12.0154 16.0631 9.02015 19.252C1.91913 26.7617 2.38392 33.9113 10.2079 37.7175C18.3418 41.678 29.2903 40.3663 35.2551 34.7085C39.7223 30.4908 39.18 25.1928 34.0931 23.3926C33.1893 23.084 32.9052 22.8526 33.0344 22.5696C33.4992 21.4381 33.6541 20.1265 33.3959 19.355C32.5954 16.9117 29.6776 16.346 25.3395 17.8119L23.6094 18.4033L23.7643 16.6803C23.9452 14.6486 23.5061 13.5427 22.2925 12.9254C21.2854 12.411 19.3488 12.4625 17.6963 13.0541Z" fill="black"/>
<path fill-rule="evenodd" clip-rule="evenodd" d="M17.0425 25.7656C14.5032 26.998 13.1455 28.8859 13.1455 31.2457C13.1455 33.3961 14.0506 34.8643 16.0368 35.9656C17.5705 36.8309 20.3865 36.7523 22.0963 35.8346C24.2837 34.6284 25.7168 32.3996 25.7168 30.2232C25.6916 28.4401 24.183 26.3162 22.398 25.5559C20.9649 24.9264 18.5511 25.0314 17.0425 25.7656Z" fill="black"/>
<path fill-rule="evenodd" clip-rule="evenodd" d="M20.1569 30.3261C20.7013 30.3261 21.1427 29.9335 21.1427 29.4492C21.1427 28.9649 20.7013 28.5723 20.1569 28.5723C19.6125 28.5723 19.1712 28.9649 19.1712 29.4492C19.1712 29.9335 19.6125 30.3261 20.1569 30.3261ZM18.9088 31.4835C18.9088 31.1248 18.7747 30.7185 18.587 30.5512C18.0775 30.0971 16.5492 30.2165 15.9594 30.7425C15.3696 31.2682 15.2355 32.392 15.7449 32.8461C16.6566 33.659 18.9088 32.6788 18.9088 31.4835Z" fill="white"/>
<path d="M41.2748 11.2826C38.6507 8.54552 34.7807 7.50357 31.2084 8.21894C30.3815 8.38482 29.8578 9.15203 30.0342 9.92442C30.2106 10.702 31.021 11.1945 31.8479 11.0286C34.3893 10.5206 37.1402 11.2618 39.0036 13.2058C40.8669 15.1497 41.3741 17.7987 40.5747 20.121C40.3156 20.8779 40.7566 21.6865 41.5615 21.9302C42.3664 22.1738 43.2264 21.7591 43.4855 21.0075V21.0023C44.6101 17.7416 43.8989 14.0145 41.2748 11.2826Z" fill="black"/>
<path d="M37.6317 14.7386C35.9894 13.0098 33.5686 12.3505 31.3388 12.8079C30.4257 12.9896 29.8453 13.8507 30.0364 14.7185C30.2346 15.5863 31.1336 16.1379 32.0396 15.9495C33.1297 15.7275 34.3189 16.0505 35.1188 16.8913C35.9187 17.739 36.1381 18.8893 35.7912 19.8984C35.5081 20.7393 35.9894 21.6475 36.8813 21.9233C37.7732 22.1924 38.7218 21.7349 39.012 20.8873C39.7128 18.8221 39.2739 16.4675 37.6317 14.7386Z" fill="black"/>
</svg>
