<svg width="36" height="36" viewBox="0 0 36 36" fill="none" xmlns="http://www.w3.org/2000/svg">
<path d="M16.1075 23.9764L15.9769 23.9739C15.161 23.9441 14.3901 23.5928 13.8325 22.9965C13.2748 22.4002 12.9758 21.6075 13.0008 20.7915C13.0222 19.9443 13.3732 19.139 13.9792 18.5466L19.7579 12.7679C19.6625 12.3399 19.6154 11.9026 19.6175 11.4641C19.6202 10.6973 19.7749 9.93862 20.0726 9.23198C20.3704 8.52534 20.8053 7.88476 21.3522 7.34729C22.4586 6.26728 23.9431 5.66214 25.4892 5.66089C25.9696 5.66108 26.4482 5.72115 26.9137 5.83971L28.4848 6.23828L25.6149 10.3808C25.5984 10.4047 25.5908 10.4338 25.5934 10.4628C25.5961 10.4918 25.6089 10.5189 25.6296 10.5395L26.4548 11.3647C26.4756 11.3857 26.5032 11.3987 26.5327 11.4013C26.5623 11.4039 26.5917 11.3959 26.6159 11.3787L30.7321 8.48806L31.1374 10.064C31.3851 11.0311 31.3809 12.0455 31.1252 13.0106C30.8695 13.9756 30.3708 14.859 29.6768 15.5766C28.9828 16.2942 28.1165 16.822 27.1605 17.1098C26.2046 17.3975 25.1909 17.4356 24.216 17.2204L18.4244 23.0108C17.8106 23.627 16.9772 23.9742 16.1075 23.9764V23.9764ZM24.4992 8.03946C23.7462 8.24807 23.0819 8.6967 22.6071 9.31722C22.1324 9.93775 21.873 10.6963 21.8686 11.4776C21.8668 11.7693 21.9004 12.0601 21.9687 12.3437L22.2446 13.4624L15.563 20.1445C15.3697 20.3312 15.2572 20.5863 15.2499 20.855C15.2424 21.0783 15.3239 21.2954 15.4765 21.4587C15.6291 21.6219 15.8402 21.7178 16.0635 21.7254H16.0666C16.2074 21.7291 16.3475 21.7043 16.4786 21.6525C16.6096 21.6007 16.7287 21.5229 16.8289 21.4238L23.508 14.7473L24.6225 15.0048C25.5249 15.2237 26.477 15.0854 27.2799 14.619C28.0829 14.1526 28.6746 13.3941 28.9316 12.5017L27.9086 13.2201C27.4511 13.5418 26.8947 13.6916 26.3375 13.6431C25.7803 13.5947 25.2581 13.351 24.863 12.9552L24.0378 12.13C23.6448 11.7369 23.4021 11.2183 23.3522 10.6647C23.3022 10.111 23.4481 9.55741 23.7643 9.10025L24.4992 8.03946ZM25.5038 28.001C26.6563 26.8542 27.5698 25.4902 28.1915 23.988C28.8132 22.4857 29.1307 20.875 29.1257 19.2492L26.8747 19.2498C26.8755 20.5794 26.6143 21.8962 26.1061 23.1249C25.5979 24.3537 24.8526 25.4702 23.9128 26.4109C22.973 27.3515 21.8572 28.0978 20.6289 28.6071C19.4007 29.1164 18.0841 29.3788 16.7544 29.3792L16.4743 29.3755C13.8987 29.2667 11.4577 28.1955 9.6339 26.3737C7.81006 24.5519 6.73613 22.1121 6.62444 19.5367C6.55585 16.9976 7.44261 14.5253 9.10932 12.6087C10.776 10.6921 13.1013 9.4708 15.6253 9.18631V11.3751H17.875V6.87491L16.3949 6.87979C13.1138 6.97717 10.0054 8.37247 7.75204 10.7594C5.49866 13.1463 4.28444 16.3298 4.37591 19.6111C4.50978 22.7549 5.81897 25.7339 8.04439 27.9585C10.2698 30.1832 13.2493 31.4913 16.3931 31.6241L16.7551 31.6302C18.3809 31.6339 19.9913 31.3151 21.4931 30.6922C22.9948 30.0692 24.3581 29.1545 25.5038 28.001Z" fill="black"/>
</svg>
