<svg width="36" height="36" viewBox="0 0 36 36" fill="none" xmlns="http://www.w3.org/2000/svg">
<path d="M21.8996 23.2494C21.5091 23.6399 21.5091 24.273 21.8996 24.6636C22.2901 25.0541 22.9233 25.0541 23.3138 24.6636L24.728 23.2494C25.1185 22.8588 25.1185 22.2257 24.728 21.8351C24.3375 21.4446 23.7043 21.4446 23.3138 21.8351L21.8996 23.2494Z" fill="black"/>
<path fill-rule="evenodd" clip-rule="evenodd" d="M5.87184 17.1211C4.70027 15.9495 4.70027 14.05 5.87184 12.8785L12.9429 5.80739C14.1145 4.63582 16.014 4.63582 17.1856 5.80739L29.9135 18.5353C31.085 19.7069 31.085 21.6064 29.9135 22.778L22.8424 29.849C21.6708 31.0206 19.7713 31.0206 18.5998 29.849L5.87184 17.1211ZM7.46283 14.4694L14.5339 7.39838C14.8268 7.10549 15.3017 7.10549 15.5946 7.39838L28.3225 20.1263C28.6154 20.4192 28.6154 20.8941 28.3225 21.187L21.2514 28.258C20.9585 28.5509 20.4836 28.5509 20.1908 28.258L7.46283 15.5301C7.16994 15.2372 7.16994 14.7623 7.46283 14.4694Z" fill="black"/>
<rect x="9" y="29.1216" width="3" height="3" transform="rotate(-45 9 29.1216)" fill="black"/>
<rect x="4.5" y="22.0605" width="2.25" height="2.25" transform="rotate(-45 4.5 22.0605)" fill="black"/>
<rect x="24" y="7.68213" width="4.5" height="4.5" transform="rotate(-45 24 7.68213)" fill="black"/>
</svg>
