<svg width="36" height="36" viewBox="0 0 36 36" fill="none" xmlns="http://www.w3.org/2000/svg">
<path fill-rule="evenodd" clip-rule="evenodd" d="M18 4.5C25.4441 4.5 31.5 10.5559 31.5 18C31.5 20.5144 30.8138 22.9129 29.5223 25.0223L31.5 27H25.875V21.375L27.8809 23.3809C28.7798 21.7406 29.25 19.9114 29.25 18C29.25 11.7968 24.2033 6.75 18 6.75C11.7968 6.75 6.75 11.7968 6.75 18C6.75 24.2033 11.7968 29.25 18 29.25C19.9249 29.25 21.825 28.7561 23.4923 27.8201L23.625 27.7594V30.2467C21.8666 31.0545 19.9496 31.5 18 31.5C10.5559 31.5 4.5 25.4441 4.5 18C4.5 10.5559 10.5559 4.5 18 4.5ZM14.625 18C14.625 19.8641 16.1359 21.375 18 21.375C19.8641 21.375 21.375 19.8641 21.375 18C21.375 16.1359 19.8641 14.625 18 14.625C16.1359 14.625 14.625 16.1359 14.625 18ZM25.875 16.875H26.1653C26.6659 16.875 26.9932 17.3171 27 18C26.9932 18.6829 26.6659 19.125 26.1653 19.125H25.875H24.9379H24.2696C23.8489 19.125 23.4686 19.386 23.3336 19.7854C23.2504 20.0317 23.1514 20.2714 23.0355 20.5009C22.8465 20.88 22.9264 21.3356 23.2267 21.6349L23.7004 22.1096L24.3641 22.7722L24.57 22.9792C24.9221 23.3314 24.8422 23.8759 24.3641 24.363V24.3641C23.8759 24.8422 23.3314 24.9221 22.9781 24.57L22.7734 24.3641L22.1096 23.7004L21.6349 23.2267C21.3356 22.9275 20.88 22.8465 20.5009 23.0366C20.2714 23.1502 20.0317 23.2504 19.7854 23.3336C19.3871 23.4675 19.125 23.8489 19.125 24.2685V24.9379V25.875V26.1664C19.125 26.6647 18.6829 26.9921 18 27C17.3171 26.9921 16.875 26.6647 16.875 26.1664V25.875V24.9379V24.2685C16.875 23.8489 16.6129 23.4675 16.2146 23.3336C15.9683 23.2504 15.7286 23.1502 15.4991 23.0366C15.12 22.8465 14.6644 22.9275 14.3651 23.2267L13.8904 23.7004L13.2266 24.3641L13.0219 24.57C12.6686 24.9221 12.1241 24.8422 11.6359 24.3641V24.363C11.1578 23.8759 11.0779 23.3314 11.43 22.9792L11.6359 22.7722L12.2996 22.1096L12.7733 21.6349C13.0736 21.3356 13.1535 20.88 12.9645 20.5009C12.8486 20.2714 12.7496 20.0317 12.6664 19.7854C12.5314 19.386 12.1511 19.125 11.7304 19.125H11.0621H10.125H9.83475C9.33413 19.125 9.00675 18.6829 9 18C9.00675 17.3171 9.33413 16.875 9.83475 16.875H10.125H11.0621H11.7304C12.1511 16.875 12.5314 16.614 12.6664 16.2146C12.7496 15.9671 12.8486 15.7286 12.9645 15.4991C13.1535 15.12 13.0736 14.6632 12.7733 14.3651L12.2996 13.8904L11.6359 13.2277L11.43 13.0208C11.0779 12.6686 11.1578 12.1241 11.6359 11.6359C12.1241 11.1578 12.6686 11.0779 13.0219 11.43L13.2266 11.6359L13.8904 12.2996L14.3651 12.7733C14.6644 13.0725 15.12 13.1535 15.4991 12.9634C15.7286 12.8497 15.9683 12.7496 16.2146 12.6664C16.6129 12.5325 16.875 12.1511 16.875 11.7315V11.0621V10.125V9.83362C16.875 9.33525 17.3171 9.00787 18 9C18.6829 9.00787 19.125 9.33525 19.125 9.83362V10.125V11.0621V11.7315C19.125 12.1511 19.3871 12.5325 19.7854 12.6664C20.0317 12.7496 20.2714 12.8497 20.5009 12.9634C20.88 13.1535 21.3356 13.0725 21.6349 12.7733L22.1096 12.2996L22.7734 11.6359L22.9781 11.43C23.3314 11.0779 23.8759 11.1578 24.3641 11.6359C24.8422 12.1241 24.9221 12.6686 24.57 13.0208L24.3641 13.2277L23.7004 13.8904L23.2267 14.3651C22.9264 14.6632 22.8465 15.12 23.0355 15.4991C23.1514 15.7286 23.2504 15.9671 23.3336 16.2146C23.4686 16.614 23.8489 16.875 24.2696 16.875H24.9379H25.875Z" fill="black"/>
</svg>
