<svg width="36" height="36" viewBox="0 0 36 36" fill="none" xmlns="http://www.w3.org/2000/svg">
<path fill-rule="evenodd" clip-rule="evenodd" d="M13.2207 22.1014C18.9418 27.8226 25.1799 30.0578 27.654 30.767C28.9156 31.1287 30.0911 30.2432 30.2489 29.0379L30.8102 24.748C30.8978 24.0788 30.5622 23.4252 29.9673 23.1065L27.0956 21.5677C25.8825 20.9176 24.3868 21.1387 23.4136 22.1119L20.4835 25.042C18.6509 23.8853 16.7002 22.4021 14.8101 20.512C12.9174 18.6193 11.4352 16.6683 10.2814 14.8372L13.2101 11.9084C14.1833 10.9352 14.4044 9.43956 13.7543 8.22645L12.2166 5.3567C11.8961 4.7586 11.2375 4.42293 10.5652 4.51511L6.29797 5.10019C5.10176 5.2642 4.22373 6.4316 4.58021 7.68743C5.2795 10.151 7.49479 16.3755 13.2207 22.1014ZM28.0471 28.5401C26.848 28.1822 24.8434 27.475 22.4916 26.2127L25.003 23.7013C25.2755 23.4288 25.6943 23.3669 26.0339 23.5489L28.5255 24.884L28.0471 28.5401ZM11.6207 10.319L9.11237 12.8274C7.85873 10.4844 7.16016 8.49022 6.80787 7.29905L10.4404 6.801L11.7731 9.28808C11.9551 9.62776 11.8932 10.0465 11.6207 10.319Z" fill="black" fill-opacity="0.85"/>
</svg>
