<svg width="48" height="48" viewBox="0 0 48 48" fill="none" xmlns="http://www.w3.org/2000/svg">
<path fill-rule="evenodd" clip-rule="evenodd" d="M24.3005 6.30002C26.3942 6.30002 28.1539 7.72984 28.6565 9.66628C35.5018 11.6761 40.5 18.0044 40.5 25.5001C40.5 25.8493 40.4892 26.1959 40.4678 26.5398L37.486 26.1207C37.4953 25.915 37.5 25.7081 37.5 25.5001C37.5 19.5737 33.6812 14.5392 28.3701 12.7231C27.649 14.2464 26.0978 15.3 24.3005 15.3C21.8153 15.3 19.8005 13.2853 19.8005 10.8C19.8005 8.31474 21.8153 6.30002 24.3005 6.30002ZM22.8005 10.8C22.8005 9.9716 23.4721 9.30003 24.3005 9.30003C25.129 9.30003 25.8005 9.9716 25.8005 10.8C25.8005 11.6285 25.129 12.3 24.3005 12.3C23.4721 12.3 22.8005 11.6285 22.8005 10.8ZM16.99 10.5589C11.3824 13.1944 7.50002 18.8939 7.50002 25.5001C7.50002 26.9654 7.69102 28.3861 8.04949 29.7386C6.98558 30.5617 6.30054 31.8508 6.30054 33.3C6.30054 35.7853 8.31526 37.8 10.8005 37.8C13.2858 37.8 15.3005 35.7853 15.3005 33.3C15.3005 30.8502 13.3429 28.8576 10.9065 28.8013C10.641 27.7448 10.5 26.6389 10.5 25.5001C10.5 20.2672 13.4773 15.7298 17.8303 13.4892L16.99 10.5589ZM24 42.0001C20.2716 42.0001 16.832 40.7634 14.069 38.6779L16.0858 36.4381C18.3094 38.0498 21.0437 39.0001 24 39.0001C27.7662 39.0001 31.1721 37.4579 33.6208 34.9706C33.4142 34.4541 33.3005 33.8903 33.3005 33.3C33.3005 30.8147 35.3153 28.8 37.8005 28.8C40.2858 28.8 42.3005 30.8147 42.3005 33.3C42.3005 35.7853 40.2858 37.8 37.8005 37.8C37.0033 37.8 36.2546 37.5927 35.6052 37.2291C32.6243 40.1787 28.5249 42.0001 24 42.0001ZM37.8005 31.8C36.9721 31.8 36.3005 32.4716 36.3005 33.3C36.3005 34.1285 36.9721 34.8 37.8005 34.8C38.629 34.8 39.3005 34.1285 39.3005 33.3C39.3005 32.4716 38.629 31.8 37.8005 31.8ZM9.30052 33.3C9.30052 32.4716 9.97209 31.8 10.8005 31.8C11.6289 31.8 12.3005 32.4716 12.3005 33.3C12.3005 34.1285 11.6289 34.8 10.8005 34.8C9.97209 34.8 9.30052 34.1285 9.30052 33.3ZM23.491 23.1059C23.6597 24.0131 23.2755 24.9341 22.5769 25.5848L17.0274 30.7534C16.255 31.4728 16.3319 32.6839 17.2579 33.3057C17.9854 33.7937 19.0053 33.6496 19.639 33.0594L25.3362 27.7532C26.0098 27.1276 26.9558 26.8776 27.9019 26.9696C28.0685 26.9854 28.2372 26.9938 28.4088 26.9938C30.0494 26.9938 31.4924 26.2475 32.4005 25.1089V24.2055H28.4857C28.0196 24.2055 27.6035 23.909 27.5087 23.4833C27.4308 23.1338 27.3859 22.7555 27.3809 22.3466C27.3859 21.9385 27.4308 21.5593 27.5087 21.2098C27.6035 20.7841 28.0196 20.4877 28.4857 20.4877H32.4005V19.5889C31.3647 18.2876 29.6303 17.4985 27.7043 17.7448C25.7284 17.9967 24.0798 19.4058 23.5778 21.2043C23.3922 21.8697 23.3783 22.5092 23.491 23.1059Z" fill="black"/>
</svg>
