<svg width="48" height="48" viewBox="0 0 48 48" fill="none" xmlns="http://www.w3.org/2000/svg">
<path fill-rule="evenodd" clip-rule="evenodd" d="M24.6048 6.01174L24.1712 6.00117H23.7451C20.3614 6.03898 16.57 7.03507 16.4995 13.878C16.5625 20.028 19.489 23.9999 23.956 23.9999C28.423 23.9999 31.3495 20.0265 31.4125 13.8765L31.403 13.4253C31.2002 7.55461 28.0977 6.24675 25.0408 6.03492L24.6048 6.01174ZM29.6175 24.1782L31.5276 24.659C34.0544 25.2959 36.3469 26.2545 38.3547 27.5107C39.6024 28.2922 40.3962 29.613 40.4905 31.0642L40.5 31.356V36H37.5V31.356C37.5 30.8328 37.2241 30.3424 36.7629 30.0536C35.2199 29.0881 33.4661 28.3192 31.5296 27.7656L30.7948 27.5681L30.5355 27.5025L23.9565 34.0818L17.379 27.5055L17.1182 27.5708C15.1713 28.0631 13.3958 28.7666 11.8205 29.6625L11.2392 30.0075C10.8358 30.2575 10.5724 30.6666 10.5129 31.1172L10.5 31.3125V36H7.5V31.3125C7.5 29.7421 8.32032 28.2871 9.65954 27.4571C11.4445 26.3523 13.452 25.4807 15.6471 24.8594L16.3858 24.6615L18.2992 24.1819L23.9565 29.838L29.6175 24.1782ZM42 39V42H6V39H42ZM28.3884 13.0868L27.9552 13.3607C25.4551 14.8772 22.6765 15.6994 19.6411 15.8211C20.1191 19.2146 21.7665 21 23.9561 21C26.4561 21 28.2499 18.6707 28.4029 14.3053L28.4126 13.8765L28.4061 13.5293L28.3884 13.0868ZM19.5385 12.82C19.7606 9.69046 20.9361 8.99997 23.9431 8.99968L24.4352 9.00678C25.9107 9.04961 26.8981 9.30413 27.5217 10.0422C25.174 11.7769 22.5245 12.7003 19.5385 12.82Z" fill="black"/>
</svg>
