<?xml version="1.0" encoding="UTF-8"?>
<svg width="48px" height="48px" viewBox="0 0 48 48" version="1.1" xmlns="http://www.w3.org/2000/svg" xmlns:xlink="http://www.w3.org/1999/xlink">
    <title>编组 7备份</title>
    <g id="4稿视觉" stroke="none" stroke-width="1" fill="none" fill-rule="evenodd">
        <g id="20220217UI-CSS同城取送申请页-V1.0付思宇" transform="translate(-548.000000, -1020.000000)">
            <g id="编组-7备份" transform="translate(548.000000, 1020.000000)">
                <rect id="矩形" x="0" y="0" width="48" height="48"></rect>
                <g id="编组-6" transform="translate(6.000000, 0.000000)">
                    <g id="编组-9" transform="translate(0.000000, 10.000000)" fill="#000000">
                        <g id="跑腿" transform="translate(7.200000, 0.000000)" fill-rule="nonzero">
                            <path d="M14.9008299,4.57248446 L15.1488669,4.81148957 L20.4235681,10.2238669 C21.0503401,10.8669982 22.0441473,10.9429916 22.757264,10.4336784 L22.9293345,10.2941509 L25.7833202,7.67668214 C26.5159558,7.00475096 27.6546082,7.0539695 28.3265495,7.78659412 C28.9467965,8.46288464 28.9525903,9.48508291 28.3735468,10.1668297 L28.2166359,10.3297851 L25.3626502,12.9472539 C23.2976914,14.841098 20.1468433,14.8307762 18.0958347,12.9776569 L17.8453509,12.7364299 L16.5655658,11.4227456 L13.7989373,14.8805291 L15.8209488,16.2266133 C18.3040462,17.878471 18.9779001,21.2304769 17.3260174,23.7135651 L17.1452562,23.9689107 L14.0510243,28.0820036 C13.45339,28.8764186 12.3248909,29.0359428 11.530464,28.4383176 C10.7971533,27.8866765 10.6048044,26.8827031 11.0496059,26.1066818 L11.1741447,25.9178233 L14.328649,21.7196246 C14.8399387,20.9510564 14.6828027,19.9327394 13.9950268,19.3503296 L13.8269501,19.2239646 L11.6155992,17.7528935 L11.5453141,17.6993438 L3.20565945,28.1243316 C2.58462494,28.900606 1.451907,29.0264648 0.675620865,28.4054396 C-0.0409552429,27.8321986 -0.203294419,26.8229378 0.264401015,26.0605008 L0.394508604,25.8754392 L14.0347398,8.82535793 L12.5706497,7.32405259 C11.9498964,6.68710875 10.9677894,6.60563101 10.2550383,7.10152864 L10.0828272,7.2375405 L6.60066316,10.3460132 C5.85905552,11.0080444 4.72116255,10.9435259 4.05912135,10.2019295 C3.44801505,9.51737026 3.45597451,8.49517202 4.04410246,7.82127209 L4.20320722,7.66045411 L7.68537121,4.55198143 C9.7554488,2.70406524 12.8700715,2.7355651 14.9008018,4.57248446 L14.9008299,4.57248446 Z M21.600274,0 C23.588507,0 25.200311,1.61177982 25.200311,3.59998285 C25.200311,5.58818588 23.5885069,7.19996569 21.600274,7.19996569 C19.612041,7.19996569 18.0002369,5.58818588 18.0002369,3.59998285 C18.0002369,1.61177982 19.612041,0 21.600274,0 Z" id="形状"></path>
                        </g>
                        <path d="M1.35,12.6 L9.45,12.6 C10.1955844,12.6 10.8,13.2044156 10.8,13.95 C10.8,14.6955844 10.1955844,15.3 9.45,15.3 L7.61816406,15.3 L7.61816406,15.3 L1.35,15.3 C0.604415588,15.3 9.13077564e-17,14.6955844 0,13.95 C-9.13077564e-17,13.2044156 0.604415588,12.6 1.35,12.6 Z" id="矩形"></path>
                        <rect id="矩形" x="5.4" y="18" width="5.4" height="2.7" rx="1.35"></rect>
                    </g>
                    <g id="编组-7" transform="translate(26.000000, 0.000000)">
                        <path d="M3.5,0 L11.5,0 C13.4329966,-3.55085719e-16 15,1.56700338 15,3.5 L15,4.5 C15,6.43299662 13.4329966,8 11.5,8 L0,8 L0,8 L0,3.5 C-2.36723813e-16,1.56700338 1.56700338,3.55085719e-16 3.5,0 Z" id="矩形" fill="#EC3E50"></path>
                        <path d="M2.86071429,5.60571429 L2.86071429,2.69142857 L4.74107143,5.60571429 L5.5125,5.60571429 L5.5125,1.41142857 L4.75178571,1.41142857 L4.75178571,4.15428571 L2.99464286,1.41142857 L2.08928571,1.41142857 L2.08928571,5.60571429 L2.86071429,5.60571429 Z M7.5213841,5.67428571 C7.84281267,5.67428571 8.10441982,5.61047619 8.30620553,5.48285714 C8.50799125,5.3552381 8.6588841,5.17714286 8.7588841,4.94857143 L8.7588841,4.94857143 L8.09459839,4.64 C8.02674125,4.76571429 7.94459839,4.85809524 7.84816982,4.91714286 C7.75174125,4.97619048 7.6338841,5.00571429 7.49459839,5.00571429 C7.29102696,5.00571429 7.11959839,4.9447619 6.98031267,4.82285714 C6.84102696,4.70095238 6.75709839,4.51809524 6.72852696,4.27428571 L6.72852696,4.27428571 L8.82316982,4.27428571 C8.82674125,4.24380952 8.82941982,4.20952381 8.83120553,4.17142857 C8.83299125,4.13333333 8.8338841,4.09333333 8.8338841,4.05142857 C8.8338841,3.5447619 8.71424125,3.1447619 8.47495553,2.85142857 C8.23566982,2.55809524 7.89281267,2.41142857 7.4463841,2.41142857 C7.14995553,2.41142857 6.88566982,2.47904762 6.65352696,2.61428571 C6.4213841,2.74952381 6.2401341,2.94095238 6.10977696,3.18857143 C5.97941982,3.43619048 5.91424125,3.72190476 5.91424125,4.04571429 C5.91424125,4.36571429 5.97852696,4.64857143 6.10709839,4.89428571 C6.23566982,5.14 6.4213841,5.33142857 6.66424125,5.46857143 C6.90709839,5.60571429 7.19281267,5.67428571 7.5213841,5.67428571 Z M8.01959839,3.70857143 L6.73924125,3.70857143 C6.77852696,3.50285714 6.8588841,3.34666667 6.98031267,3.24 C7.10174125,3.13333333 7.2463841,3.08 7.41424125,3.08 C7.57852696,3.08 7.71334839,3.13238095 7.81870553,3.23714286 C7.92406267,3.34190476 7.99102696,3.49904762 8.01959839,3.70857143 L8.01959839,3.70857143 Z M10.6499353,5.60571429 L11.1910067,3.47428571 L11.7427924,5.60571429 L12.6374353,5.60571429 L13.4410067,2.48 L12.6856495,2.48 L12.214221,4.69142857 L11.6356495,2.48 L10.789221,2.48 L10.2106495,4.69714286 L9.74457812,2.48 L8.94636383,2.48 L9.74457812,5.60571429 L10.6499353,5.60571429 Z" id="New" fill="#FFFFFF" fill-rule="nonzero"></path>
                    </g>
                </g>
            </g>
        </g>
    </g>
</svg>