<svg width="48" height="48" viewBox="0 0 48 48" fill="none" xmlns="http://www.w3.org/2000/svg">
<path fill-rule="evenodd" clip-rule="evenodd" d="M27.3503 21.9426C27.9653 21.3697 28.3036 20.5587 28.1551 19.7599C28.0558 19.2345 28.0681 18.6715 28.2316 18.0855C28.6736 16.502 30.1251 15.2613 31.8649 15.0395C33.5608 14.8226 35.0879 15.5174 36 16.6632V17.4546H32.5529C32.1426 17.4546 31.7762 17.7156 31.6927 18.0904C31.6242 18.3982 31.5846 18.7321 31.5802 19.0913C31.5846 19.4514 31.6242 19.7845 31.6927 20.0922C31.7762 20.467 32.1426 20.7281 32.5529 20.7281H36V21.5236C35.2004 22.5261 33.9298 23.1832 32.4853 23.1832C32.3341 23.1832 32.1856 23.1759 32.0389 23.162C31.2059 23.0809 30.3729 23.3011 29.7798 23.8519L24.7634 28.524C24.2055 29.0437 23.3075 29.1705 22.6669 28.7409C21.8515 28.1934 21.7838 27.127 22.4639 26.4936L27.3503 21.9426Z" fill="black"/>
<path fill-rule="evenodd" clip-rule="evenodd" d="M44 10.0001C43.9396 10.0001 43.8784 10.0001 43.8165 10.0001C42.7931 10.0003 41.5807 10.0005 41 10H18.4998C17.6603 10.0008 16.8553 10.3347 16.2617 10.9283C15.668 11.522 15.3341 12.3269 15.3333 13.1665V15H9.33317C8.8418 15.0012 8.35738 15.1161 7.91786 15.3358C7.47834 15.5555 7.09567 15.8739 6.79983 16.2663L2.63317 21.8221C2.22338 22.3707 2.00134 23.0368 2 23.7215V34.6671H5.40077C5.55687 36.0428 6.21394 37.3128 7.24664 38.235C8.27933 39.1571 9.61536 39.6668 10.9998 39.6668C12.3843 39.6668 13.7203 39.1571 14.753 38.235C15.7857 37.3128 16.4428 36.0428 16.5989 34.6671H25.4C25.5562 36.0429 26.2134 37.3131 27.2462 38.2352C28.2791 39.1574 29.6152 39.6672 30.9998 39.6672C32.3845 39.6672 33.7206 39.1574 34.7535 38.2352C35.7863 37.3131 36.4435 36.0429 36.5997 34.6671H44V31.6659H36.1504C35.7046 30.6729 34.9812 29.8299 34.0674 29.2385C33.1536 28.6472 32.0883 28.3325 30.9998 28.3325C29.9114 28.3325 28.8461 28.6472 27.9323 29.2385C27.0185 29.8299 26.2951 30.6729 25.8493 31.6659H18.333V13.1665C18.3331 13.1223 18.3507 13.0799 18.3819 13.0486C18.4132 13.0173 18.4556 12.9997 18.4998 12.9997H44V10.0001ZM9.5189 36.2162C9.95721 36.5092 10.4726 36.6657 10.9998 36.6659C11.7068 36.6651 12.3845 36.384 12.8845 35.8842C13.3844 35.3844 13.6657 34.7068 13.6667 33.9998C13.6667 33.4726 13.5103 32.9572 13.2174 32.5188C12.9245 32.0804 12.5082 31.7387 12.0211 31.5368C11.534 31.335 10.998 31.2822 10.4808 31.385C9.9637 31.4878 9.48866 31.7416 9.11578 32.1144C8.7429 32.4872 8.48892 32.9621 8.38596 33.4792C8.283 33.9963 8.33568 34.5324 8.53734 35.0195C8.739 35.5067 9.08058 35.9231 9.5189 36.2162ZM7.93461 29.2417C8.84785 28.6506 9.91199 28.3349 10.9998 28.3325C11.8293 28.3355 12.6478 28.5217 13.3969 28.8777C14.146 29.2338 14.8073 29.7509 15.3333 30.3922V17.9997H9.33317L5.03385 23.6215L5.00537 31.6659H5.85C6.29767 30.6744 7.02137 29.8328 7.93461 29.2417ZM29.5187 36.2166C29.9571 36.5095 30.4726 36.6659 30.9998 36.6659C31.7066 36.665 32.3842 36.3838 32.884 35.884C33.3838 35.3842 33.665 34.7066 33.6659 33.9998C33.6659 33.4726 33.5095 32.9571 33.2166 32.5187C32.9236 32.0803 32.5072 31.7386 32.0201 31.5368C31.5329 31.335 30.9969 31.2822 30.4797 31.3851C29.9626 31.4879 29.4875 31.7418 29.1147 32.1147C28.7418 32.4875 28.4879 32.9626 28.385 33.4797C28.2822 33.9969 28.335 34.5329 28.5368 35.0201C28.7385 35.5072 29.0803 35.9236 29.5187 36.2166Z" fill="black"/>
<path fill-rule="evenodd" clip-rule="evenodd" d="M44.5 18H39.5V15H44.5V18Z" fill="black"/>
<path fill-rule="evenodd" clip-rule="evenodd" d="M46 24H39.5V21H46V24Z" fill="black"/>
<path fill-rule="evenodd" clip-rule="evenodd" d="M45 30H39.5V27H45V30Z" fill="black"/>
</svg>
