<svg width="52" height="52" viewBox="0 0 52 52" fill="none" xmlns="http://www.w3.org/2000/svg">
<path fill-rule="evenodd" clip-rule="evenodd" d="M12.0867 20.8L10.1162 21.4561C8.85249 21.8768 8 23.0592 8 24.391V26.8092C8 28.1408 8.85224 29.3231 10.1156 29.7439L12.2837 30.4662C12.2873 30.4718 12.2917 30.48 12.2959 30.4912C12.4277 30.8494 12.574 31.202 12.7345 31.5482C12.7395 31.5591 12.7422 31.5681 12.7437 31.5745L11.7207 33.6192C11.1247 34.8106 11.3583 36.2497 12.3006 37.1914L14.0116 38.9011C14.9535 39.8424 16.3921 40.0752 17.5828 39.4791L19.6264 38.4561C19.6329 38.4575 19.6419 38.4602 19.6527 38.4652C19.9987 38.6252 20.351 38.7711 20.7088 38.9025C20.7201 38.9067 20.7283 38.9111 20.7338 38.9146L21.4561 41.0839C21.8768 42.3475 23.0592 43.2 24.391 43.2H26.8092C28.1408 43.2 29.3231 42.3478 29.7439 41.0844L30.4662 38.9163C30.4718 38.9127 30.48 38.9083 30.4912 38.9041C30.8494 38.7723 31.202 38.626 31.5482 38.4655C31.5564 38.4617 31.5635 38.4592 31.5693 38.4577L31.5745 38.4563L33.6192 39.4793C34.8106 40.0753 36.2497 39.8417 37.1914 38.8994L38.9011 37.1884C39.8424 36.2465 40.0752 34.8079 39.4791 33.6172L38.4561 31.5736C38.4575 31.5671 38.4602 31.5581 38.4652 31.5473C38.6252 31.2013 38.7711 30.849 38.9025 30.4912C38.9067 30.4799 38.9111 30.4717 38.9147 30.4662L41.0839 29.7439C42.3475 29.3232 43.2 28.1408 43.2 26.809V24.3908C43.2 23.0592 42.3478 21.8769 41.0844 21.4561L38.9174 20.7341C38.9136 20.7283 38.9087 20.7195 38.9042 20.7073C38.7718 20.3476 38.6252 19.9953 38.4653 19.6508C38.4605 19.6403 38.4578 19.6316 38.4564 19.6253L39.4793 17.5808C40.0753 16.3894 39.8417 14.9503 38.8994 14.0086L37.1884 12.2989C36.2465 11.3576 34.8079 11.1248 33.6172 11.7209L31.5753 12.7431C31.5686 12.7416 31.5591 12.7388 31.5476 12.7335C31.204 12.5742 30.8524 12.4283 30.4936 12.2967C30.4807 12.292 30.4714 12.2868 30.4653 12.2828L29.7439 10.1162C29.3232 8.85249 28.1408 8 26.809 8H24.3908C23.0592 8 21.8769 8.85224 21.4561 10.1156L20.8 12.0849V15.7217C20.8668 15.6958 20.9327 15.6678 20.9973 15.6379C21.2649 15.5138 21.5375 15.4007 21.8143 15.2988C22.6757 14.9817 23.437 14.294 23.761 13.3214L24.4677 11.2H26.7321L27.4378 13.3196C27.7633 14.2971 28.5295 14.9849 29.3921 15.3012C29.6672 15.402 29.9372 15.5141 30.2014 15.6366C31.0356 16.0234 32.0631 16.0774 32.983 15.6169L34.9809 14.6168L36.5831 16.2178L35.5821 18.2185C35.1227 19.1367 35.1754 20.1634 35.5627 20.9979C35.6863 21.2643 35.7993 21.536 35.9012 21.8128C36.2182 22.6738 36.9056 23.4368 37.8799 23.7614L40 24.4677V26.7321L37.8775 27.4388C36.9039 27.7629 36.2156 28.5253 35.8988 29.3878C35.7972 29.6644 35.6844 29.9367 35.5607 30.2041C35.1751 31.038 35.1229 32.0637 35.5822 32.9813L36.5832 34.9809L34.9822 36.5831L32.9815 35.5821C32.0632 35.1227 31.0369 35.1755 30.2027 35.5621C29.9351 35.6862 29.6625 35.7993 29.3857 35.9012C28.5243 36.2183 27.763 36.906 27.439 37.8786L26.7323 40H24.4679L23.7612 37.8775C23.4371 36.9039 22.6747 36.2156 21.8122 35.8988C21.5356 35.7972 21.2633 35.6844 20.9959 35.5607C20.162 35.1751 19.1363 35.1229 18.2187 35.5822L16.2191 36.5832L14.6169 34.9822L15.6179 32.9815C16.0773 32.0632 16.0245 31.0369 15.6379 30.2027C15.5138 29.9351 15.4007 29.6625 15.2988 29.3857C14.9817 28.5243 14.294 27.763 13.3214 27.439L11.2 26.7323V24.4679L13.3196 23.7622C14.2971 23.4367 14.9849 22.6705 15.3012 21.8079C15.402 21.5328 15.5141 21.2629 15.6366 20.9986C15.6668 20.9335 15.6949 20.8673 15.7209 20.8H12.0867ZM21.2589 25.5994C21.2589 23.2021 23.2026 21.2583 25.5999 21.2583C27.9972 21.2583 29.941 23.2021 29.941 25.5994C29.941 27.9967 27.9972 29.9405 25.5999 29.9405C23.2026 29.9405 21.2589 27.9967 21.2589 25.5994ZM18.0589 25.5994C18.0589 21.4348 21.4353 18.0583 25.5999 18.0583C29.7645 18.0583 33.141 21.4348 33.141 25.5994C33.141 29.764 29.7645 33.1405 25.5999 33.1405C21.4353 33.1405 18.0589 29.764 18.0589 25.5994Z" fill="black"/>
<path fill-rule="evenodd" clip-rule="evenodd" d="M15.1613 17.4477V14.4H16.8702L14.3994 11.1673L11.9285 14.4H13.6375V17.4477H15.1613ZM9.06665 14.4C9.06665 11.4545 11.4545 9.06667 14.4 9.06667C17.3455 9.06667 19.7333 11.4545 19.7333 14.4C19.7333 17.3455 17.3455 19.7333 14.4 19.7333C11.4545 19.7333 9.06665 17.3455 9.06665 14.4Z" fill="black"/>
</svg>
