<svg width="64" height="64" viewBox="0 0 64 64" fill="none" xmlns="http://www.w3.org/2000/svg">
<rect x="23.0994" y="8" width="19.0807" height="28.6211" rx="2.38509" stroke="black" stroke-width="3.6"/>
<path fill-rule="evenodd" clip-rule="evenodd" d="M53.2468 28.951C53.2178 29.0526 53.2113 29.1356 53.2113 29.1677V37.7201C53.2113 38.8271 52.5 40 51.9888 40.6715L51 42L48.965 38.6357L49.459 38.1417C49.5708 38.0299 49.6336 37.8783 49.6336 37.7201V29.1677C49.6336 28.4839 49.824 27.4981 50.4478 26.6318C51.1372 25.6743 52.2705 24.9938 53.8075 24.9938C55.3446 24.9938 56.4779 25.6743 57.1673 26.6318C57.791 27.4981 57.9815 28.4839 57.9815 29.1677V40.197C57.9815 41.208 57.6145 42.1847 56.9487 42.9455L49.1518 51.8563L49.1097 51.8984C48.9723 52.0358 48.4304 52.6284 47.9319 53.2901C47.6838 53.6194 47.4781 53.9242 47.3428 54.1696C47.2974 54.252 47.2673 54.3143 47.2485 54.3574L47.2485 56H43.6708L43.6709 54.2112C43.6709 53.4817 44.0035 52.8162 44.2102 52.4416C44.4599 51.9888 44.7761 51.5333 45.0745 51.1372C45.6363 50.3916 46.2481 49.7084 46.5334 49.4158L54.2563 40.5896C54.3514 40.4809 54.4038 40.3414 54.4038 40.197V29.1677C54.4038 29.1356 54.3973 29.0526 54.3683 28.951C54.34 28.852 54.3015 28.7744 54.2639 28.7222C54.231 28.6765 54.2006 28.6515 54.1651 28.6332C54.131 28.6156 54.0292 28.5714 53.8075 28.5714C53.5859 28.5714 53.4841 28.6156 53.45 28.6332C53.4145 28.6515 53.3841 28.6765 53.3512 28.7222C53.3136 28.7744 53.2751 28.852 53.2468 28.951Z" fill="black"/>
<path fill-rule="evenodd" clip-rule="evenodd" d="M11.7347 28.951C11.7637 29.0526 11.7702 29.1356 11.7702 29.1677V37.7201C11.7702 38.8271 12.2099 39.8888 12.9927 40.6715L14 42L16.0164 38.6357L15.5225 38.1417C15.4106 38.0299 15.3478 37.8783 15.3478 37.7201V29.1677C15.3478 28.4839 15.1574 27.4981 14.5337 26.6318C13.8443 25.6743 12.711 24.9938 11.1739 24.9938C9.63685 24.9938 8.50355 25.6743 7.81414 26.6318C7.19041 27.4981 6.99999 28.4839 6.99999 29.1677V40.197C6.99999 41.208 7.36695 42.1847 8.03271 42.9455L15.8296 51.8563L15.8717 51.8984C16.0091 52.0358 16.551 52.6284 17.0495 53.2901C17.2977 53.6194 17.5033 53.9242 17.6386 54.1696C17.6841 54.252 17.7329 54.4356 17.7329 54.5195V56H21.3105V54.2112C21.3105 53.4817 20.9779 52.8162 20.7713 52.4416C20.5215 51.9888 20.2054 51.5333 19.907 51.1372C19.3452 50.3916 18.7333 49.7084 18.4481 49.4158L10.7252 40.5896C10.6301 40.4809 10.5776 40.3414 10.5776 40.197V29.1677C10.5776 29.1356 10.5841 29.0526 10.6132 28.951C10.6414 28.852 10.6799 28.7744 10.7175 28.7222C10.7504 28.6765 10.7808 28.6515 10.8164 28.6332C10.8505 28.6156 10.9523 28.5714 11.1739 28.5714C11.3955 28.5714 11.4973 28.6156 11.5314 28.6332C11.567 28.6515 11.5974 28.6765 11.6303 28.7222C11.6679 28.7744 11.7064 28.852 11.7347 28.951Z" fill="black"/>
<path fill-rule="evenodd" clip-rule="evenodd" d="M46.7077 40.6249L39.5693 47.7633C39.415 47.9176 39.2235 48.2613 39.0796 48.8047C38.9433 49.3196 38.9007 49.8208 38.9007 50.0761V56H35.3231V50.0761C35.3231 49.5364 35.3997 48.7258 35.6211 47.8892C35.835 47.081 36.2398 46.0333 37.0395 45.2336L44.1948 38.0783C44.9771 37.296 46.0687 36.988 46.996 36.9703C47.9364 36.9523 49.0834 37.2262 49.9355 38.0783C50.2451 38.3879 50.8975 39.0749 51.2084 40.0141C51.3753 40.5183 51.4563 41.131 51.3064 41.7951C51.1601 42.4431 50.8215 43.0171 50.3463 43.5058L45.6084 48.8747L42.9259 46.5075L47.733 41.0602L47.7595 41.0337C47.7419 41.0046 47.7192 40.9703 47.6901 40.9307C47.6118 40.8243 47.5154 40.7181 47.4113 40.6137C47.4052 40.6097 47.3862 40.5985 47.3483 40.5856C47.2812 40.5628 47.1827 40.545 47.0644 40.5473C46.9461 40.5495 46.8418 40.5713 46.7677 40.5984C46.7359 40.61 46.7167 40.6198 46.7077 40.6249ZM47.8391 40.9427L47.8379 40.9448Z" fill="black"/>
<path fill-rule="evenodd" clip-rule="evenodd" d="M18.2738 40.6249L25.4122 47.7633C25.5665 47.9176 25.758 48.2613 25.9019 48.8047C26.0382 49.3196 26.0808 49.8208 26.0808 50.0761V56H29.6584V50.0761C29.6584 49.5364 29.5818 48.7258 29.3604 47.8892C29.1465 47.081 28.7417 46.0333 27.942 45.2336L20.7867 38.0783C20.0044 37.296 18.9128 36.988 17.9855 36.9703C17.0451 36.9523 15.8981 37.2262 15.046 38.0783C14.7364 38.3879 14.084 39.0749 13.7731 40.0141C13.6062 40.5183 13.5252 41.131 13.6751 41.7951C13.8214 42.4431 14.16 43.0171 14.6352 43.5058L19.3731 48.8747L22.0556 46.5075L17.2485 41.0602L17.222 41.0337C17.2396 41.0046 17.2623 40.9703 17.2914 40.9307C17.3697 40.8243 17.4661 40.7181 17.5702 40.6137C17.5763 40.6097 17.5953 40.5985 17.6332 40.5856C17.7003 40.5628 17.7989 40.545 17.9171 40.5473C18.0354 40.5495 18.1397 40.5713 18.2138 40.5984C18.2457 40.61 18.2648 40.6198 18.2738 40.6249ZM17.1424 40.9427L17.1436 40.9448Z" fill="black"/>
</svg>
