<svg width="52" height="52" viewBox="0 0 52 52" fill="none" xmlns="http://www.w3.org/2000/svg">
<path fill-rule="evenodd" clip-rule="evenodd" d="M35.2001 7.46666L16 7.46666L16 7.46667V43.7333L35.2001 43.7333V41.6H38.4001V43.7333C38.4001 45.5006 36.9674 46.9333 35.2001 46.9333H16H12.8V43.7333V7.46667C12.8 5.69936 14.2327 4.26666 16 4.26666H35.2C36.9674 4.26666 38.4001 5.69935 38.4001 7.46666V19.2H35.2001V7.46666Z" fill="black"/>
<path fill-rule="evenodd" clip-rule="evenodd" d="M37.0403 21.9077L30.6403 23.7363C30.1824 23.8671 29.8667 24.2857 29.8667 24.7619V32.4907C29.8667 32.4907 29.8667 33.5573 32 35.6907C34.1334 37.824 37.3334 38.8907 37.3334 38.8907C37.3334 38.8907 38.4 38.8907 41.6 36.7573C44.8 34.624 44.8 32.4907 44.8 32.4907V24.7619C44.8 24.2857 44.4843 23.8671 44.0264 23.7363L37.6264 21.9077C37.4349 21.853 37.2319 21.853 37.0403 21.9077ZM33.0667 30.3573L34.6245 28.8998L36.8108 31.2364L41.4841 26.8638L42.9417 28.4216L37.4894 33.523C37.0592 33.9255 36.3842 33.903 35.9817 33.4729L35.253 32.694L35.253 32.6939L33.0667 30.3573Z" fill="black"/>
</svg>
