<svg width="48" height="48" viewBox="0 0 48 48" fill="none" xmlns="http://www.w3.org/2000/svg">
<path fill-rule="evenodd" clip-rule="evenodd" d="M33 7H15V41L33 41V39H36V41C36 42.6569 34.6569 44 33 44H15H12V41V7C12 5.34315 13.3431 4 15 4H33C34.6569 4 36 5.34315 36 7V18H33V7Z" fill="black"/>
<path fill-rule="evenodd" clip-rule="evenodd" d="M38.6668 22.5366C38.6668 22.5366 38.6667 22.5366 38.6667 22.5366C35.8572 20.2489 31.725 20.6719 29.4373 23.4814L30.9882 24.7442C32.5785 22.7912 35.4509 22.4972 37.4039 24.0875C37.4039 24.0875 37.4039 24.0875 37.4039 24.0875L38.6668 22.5366Z" fill="black"/>
<path d="M39.0584 24.629C38.6149 24.7209 38.1809 24.4358 38.089 23.9924L37.2574 19.9774L38.8633 19.6447L39.695 23.6597C39.7869 24.1032 39.5018 24.5371 39.0584 24.629V24.629Z" fill="black"/>
<path d="M39.694 23.6596C39.7859 24.1031 39.5008 24.5371 39.0574 24.6289L35.0424 25.4606L34.7097 23.8546L38.7247 23.0229C39.1682 22.9311 39.6022 23.2161 39.694 23.6596V23.6596Z" fill="black"/>
<path fill-rule="evenodd" clip-rule="evenodd" d="M37.1967 34.8253C37.1967 34.8253 37.1968 34.8253 37.1968 34.8253C40.6825 33.8369 42.7071 30.21 41.7187 26.7242C41.7187 26.7242 41.7187 26.7242 41.7187 26.7242L39.7946 27.2697C39.7946 27.2698 39.7946 27.2698 39.7946 27.2698C40.4816 29.6928 39.0743 32.2141 36.6512 32.9011C36.6512 32.9011 36.6512 32.9011 36.6511 32.9011L37.1967 34.8253Z" fill="black"/>
<path d="M35.259 33.9454C35.4382 33.5295 35.9207 33.3376 36.3366 33.5168L40.1021 35.1394L39.453 36.6456L35.6876 35.023C35.2716 34.8438 35.0797 34.3613 35.259 33.9454V33.9454Z" fill="black"/>
<path d="M35.6877 35.0229C35.2717 34.8436 35.0799 34.3612 35.2591 33.9452L36.8817 30.1798L38.3879 30.8288L36.7653 34.5943C36.586 35.0102 36.1036 35.2021 35.6877 35.0229V35.0229Z" fill="black"/>
<path fill-rule="evenodd" clip-rule="evenodd" d="M27.3579 27.537C27.3579 27.537 27.3579 27.537 27.3579 27.5371C26.5691 31.0733 28.7964 34.5794 32.3326 35.3682L32.768 33.4162C30.3098 32.8679 28.7616 30.4307 29.3099 27.9725C29.3099 27.9725 29.3099 27.9724 29.31 27.9724L27.3579 27.537Z" fill="black"/>
<path d="M29.0535 26.2506C29.3341 26.6061 29.2733 27.1218 28.9178 27.4023L25.6994 29.9426L24.6833 28.6553L27.9017 26.115C28.2572 25.8344 28.7729 25.8951 29.0535 26.2506V26.2506Z" fill="black"/>
<path d="M27.9012 26.1149C28.2567 25.8343 28.7724 25.895 29.053 26.2505L31.5933 29.469L30.3059 30.4851L27.7656 27.2666C27.485 26.9111 27.5457 26.3955 27.9012 26.1149V26.1149Z" fill="black"/>
</svg>
