<svg width="64" height="64" viewBox="0 0 64 64" fill="none" xmlns="http://www.w3.org/2000/svg">
<path fill-rule="evenodd" clip-rule="evenodd" d="M33.4814 13.2008L31.975 11.6846L30.4616 13.1937L20.5588 23.0684C20.4051 23.2216 20.1739 23.2665 19.9741 23.1817L10.5905 19.2039L6.75244 17.5769L7.67772 21.6415L13.8103 48.5815C14.3076 50.7661 16.2501 52.3161 18.4906 52.3161H45.4683C47.7062 52.3161 49.6472 50.7695 50.147 48.5881L56.3205 21.6445L57.247 17.6009L53.419 19.1994L43.8705 23.1867C43.6703 23.2703 43.4395 23.2243 43.2866 23.0704L33.4814 13.2008ZM23.5715 26.0896L31.9608 17.7241L40.2598 26.0776C41.6357 27.4624 43.7132 27.8761 45.5146 27.1239L51.2352 24.7351L45.9881 47.6352C45.9326 47.8776 45.7169 48.0494 45.4683 48.0494H18.4906C18.2416 48.0494 18.0258 47.8772 17.9706 47.6345L12.7632 24.7591L18.3088 27.11C20.1073 27.8724 22.1883 27.4689 23.5715 26.0896ZM29.8445 31.2911C30.6465 33.8154 31.45 36.3446 31.9844 38.937C32.5017 36.3551 33.2957 33.836 34.0881 31.3225C34.33 30.5548 34.5719 29.7877 34.8056 29.0195H38.4884L33.7531 43.338H30.092L25.3568 29.0195H29.1306C29.3636 29.7773 29.604 30.534 29.8445 31.2911Z" fill="black" fill-opacity="0.85"/>
</svg>
