<svg width="48" height="48" viewBox="0 0 48 48" fill="none" xmlns="http://www.w3.org/2000/svg">
<path fill-rule="evenodd" clip-rule="evenodd" d="M27.5001 10.8333H20.5001V7.33333H17.5001V10.8333H14.0001C12.2512 10.8333 10.8334 12.2511 10.8334 14V17.5H7.33325V20.5H10.8334V27.5H7.33325V30.5H10.8334V34C10.8334 35.7489 12.2512 37.1666 14.0001 37.1666H17.5001V40.6667H20.5001V37.1666H27.5001V40.6667H30.5001V37.1666H34.0001C35.749 37.1666 37.1668 35.7489 37.1668 34V30.5H40.6666V27.5H37.1668V20.5H40.6666V17.5H37.1668V14C37.1668 12.2511 35.749 10.8333 34.0001 10.8333H30.5001V7.33333H27.5001V10.8333ZM14.0001 13.8333C13.908 13.8333 13.8334 13.9079 13.8334 14V34C13.8334 34.092 13.908 34.1666 14.0001 34.1666H34.0001C34.0921 34.1666 34.1668 34.092 34.1668 34V14C34.1668 13.9079 34.0921 13.8333 34.0001 13.8333H14.0001Z" fill="black" fill-opacity="0.85"/>
</svg>
