<svg width="48" height="48" viewBox="0 0 48 48" fill="none" xmlns="http://www.w3.org/2000/svg">
<path fill-rule="evenodd" clip-rule="evenodd" d="M34.1334 40.5333L39.4668 43.2L42.6668 44.8V41.2223V10.6667C42.6668 8.31025 40.7565 6.4 38.4001 6.4H12.8001C10.4437 6.4 8.53345 8.31025 8.53345 10.6667V41.2223V44.8L11.7334 43.2L17.0668 40.5333L25.6001 44.8L34.1334 40.5333ZM25.6001 41.2223L32.7024 37.6712L34.1334 36.9556L35.5645 37.6712L39.4668 39.6223V10.6667C39.4668 10.0776 38.9892 9.6 38.4001 9.6H12.8001C12.211 9.6 11.7334 10.0776 11.7334 10.6667V39.6223L15.6357 37.6712L17.0668 36.9556L18.4979 37.6712L25.6001 41.2223ZM34.1334 18.6667H17.0668V15.4667H34.1334V18.6667ZM17.0668 27.2H27.7334V24H17.0668V27.2Z" fill="black"/>
</svg>
