<svg width="52" height="52" viewBox="0 0 52 52" fill="none" xmlns="http://www.w3.org/2000/svg">
<path d="M19.7333 14.3376C19.7333 14.1081 19.8802 13.9043 20.098 13.8317L38.2313 7.78721C38.5767 7.6721 38.9333 7.92915 38.9333 8.29318V37.9291C38.9333 38.1586 38.7864 38.3624 38.5686 38.435L20.4353 44.4795C20.0899 44.5946 19.7333 44.3375 19.7333 43.9735V14.3376Z" stroke="black" stroke-width="3.2"/>
<path fill-rule="evenodd" clip-rule="evenodd" d="M16 37.3333V8.53333H30.9333L37.7254 6.26932C39.1068 5.80885 40.5333 6.83705 40.5333 8.29318V38.4147C40.5334 38.4098 40.5334 38.4049 40.5334 38.4V7.46667C40.5334 6.28846 39.5783 5.33333 38.4001 5.33333H14.9334C13.7552 5.33333 12.8 6.28846 12.8 7.46667V38.4C12.8 39.5782 13.7552 40.5333 14.9334 40.5333H18.1333V37.3333H16Z" fill="black"/>
<line x1="25.0666" y1="24.5333" x2="25.0666" y2="30.9333" stroke="black" stroke-width="3.2"/>
</svg>
