<?xml version="1.0" encoding="UTF-8"?>
<svg width="28px" height="28px" fill="currentColor" viewBox="0 0 28 28" version="1.1" xmlns="http://www.w3.org/2000/svg" xmlns:xlink="http://www.w3.org/1999/xlink">
    <!-- Generator: Sketch 63 (92445) - https://sketch.com -->
    <desc>Created with Sketch.</desc>
    <g id="✅-首页设计稿" stroke="none" stroke-width="1" fill-rule="evenodd">
        <g id="首屏" transform="translate(-1660.000000, -853.000000)"  fill-rule="nonzero">
            <g id="编组-21备份-3" transform="translate(1640.000000, 707.000000)">
                <g id="编组-16备份-2" transform="translate(9.000000, 146.000000)">
                    <g id="编组-31" transform="translate(11.000000, 0.000000)">
                        <g id="iconkit/teambition/scan#B2B2B2">
                            <path d="M7,3.98762 L21,3.98762 C22.54,3.98762 23.8,5.24762 23.8,6.78762 L23.8,10.50042 C23.8,10.96382 23.4234,11.34042 22.96,11.34042 C22.4966,11.34042 22.12,10.96382 22.12,10.50042 L22.12,6.78762 C22.12,6.18002 21.6076,5.66762 21,5.66762 L7,5.66762 C6.3924,5.66762 5.88,6.18002 5.88,6.78762 L5.88,9.09902 L5.88,10.50042 C5.88,10.96382 5.5048,11.34042 5.04,11.34042 C4.5766,11.34042 4.2,10.96382 4.2,10.50042 L4.2,6.78762 C4.2,5.24762 5.46,3.98762 7,3.98762 Z M22.12,17.5 C22.12,17.0366 22.4966,16.66 22.96,16.66 C23.4234,16.66 23.8,17.0366 23.8,17.5 L23.8,21.2128 C23.8,22.7528 22.54,24.0128 21,24.0128 L7,24.0128 C5.46,24.0128 4.2,22.7528 4.2,21.2128 L4.2,18.9 L4.2,17.5 C4.2,17.0366 4.5766,16.66 5.04,16.66 C5.5034,16.66 5.88,17.0366 5.88,17.5 C5.88,17.5 5.88,18.9 5.88,18.9014 L5.88,21.2128 C5.88,21.819 6.3924,22.3328 7,22.3328 L21,22.3328 C21.6076,22.3328 22.12,21.819 22.12,21.2128 L22.12,17.5 Z M22.96,14.84014 L5.04,14.84014 C4.5766,14.84014 4.2,14.46354 4.2,14.00014 C4.2,13.53534 4.5766,13.16014 5.04,13.16014 L22.96,13.16014 C23.4248,13.16014 23.8,13.53534 23.8,14.00014 C23.8,14.46354 23.4248,14.84014 22.96,14.84014 Z" id="scan"></path>
                        </g>
                    </g>
                </g>
            </g>
        </g>
    </g>
</svg>