<?xml version="1.0" encoding="UTF-8"?>
<svg width="28px" height="28px" fill="currentColor" viewBox="0 0 28 28" version="1.1" xmlns="http://www.w3.org/2000/svg" xmlns:xlink="http://www.w3.org/1999/xlink">
    <!-- Generator: Sketch 63 (92445) - https://sketch.com -->
    <desc>Created with Sketch.</desc>
    <g id="✅-首页设计稿" stroke="none" stroke-width="1" fill-rule="evenodd">
        <g id="首屏" transform="translate(-1660.000000, -921.000000)" fill-rule="nonzero">
            <g id="编组-21备份-3" transform="translate(1640.000000, 707.000000)">
                <g id="编组-16备份-3" transform="translate(10.000000, 214.000000)">
                    <g id="编组-33" transform="translate(10.000000, 0.000000)">
                        <g id="iconkit/teambition/emoji#B2B2B2">
                            <path d="M14,2.8 C20.1852,2.8 25.2,7.8148 25.2,14 C25.2,20.1852 20.1852,25.2 14,25.2 C7.8148,25.2 2.8,20.1852 2.8,14 C2.8,7.8148 7.8148,2.8 14,2.8 Z M14,4.48 C8.75,4.48 4.48,8.75 4.48,14 C4.48,19.25 8.75,23.52 14,23.52 C19.25,23.52 23.52,19.25 23.52,14 C23.52,8.75 19.25,4.48 14,4.48 Z M14.00014,20.07572 C11.22254,20.07572 8.78234,18.39152 7.78274,15.78472 C7.61614,15.35072 7.83174,14.86632 8.26574,14.69972 C8.69694,14.53312 9.18414,14.74872 9.35074,15.18272 C10.09974,17.13432 11.92394,18.39712 14.00014,18.39712 C16.07634,18.39712 17.90054,17.13432 18.64954,15.18272 C18.81474,14.75012 19.30054,14.53312 19.73454,14.69972 C20.16714,14.86492 20.38414,15.35072 20.21754,15.78472 C19.21934,18.39152 16.77774,20.07572 14.00014,20.07572 L14.00014,20.07572 Z M11.0782,11.65836 C11.0782,12.30236 10.556,12.82456 9.912,12.82456 C9.2666,12.82456 8.7444,12.30236 8.7444,11.65836 C8.7444,11.01436 9.2666,10.49216 9.912,10.49216 C10.556,10.49216 11.0782,11.01436 11.0782,11.65836 L11.0782,11.65836 Z M19.25504,11.67642 C19.25504,12.32042 18.73284,12.84262 18.08884,12.84262 C17.44344,12.84262 16.92124,12.32042 16.92124,11.67642 C16.92124,11.03242 17.44344,10.51022 18.08884,10.51022 C18.73284,10.51022 19.25504,11.03242 19.25504,11.67642 L19.25504,11.67642 Z" id="emoji"></path>
                        </g>
                    </g>
                </g>
            </g>
        </g>
    </g>
</svg>